<?xml version="1.0" encoding="utf-8"?>
<!-- Generator: Adobe Illustrator 24.1.0, SVG Export Plug-In . SVG Version: 6.00 Build 0)  -->
<svg version="1.1" id="horizontal_color" xmlns="http://www.w3.org/2000/svg" xmlns:xlink="http://www.w3.org/1999/xlink" x="0px"
	 y="0px" viewBox="0 0 585 332" style="enable-background:new 0 0 585 332;" xml:space="preserve">
<style type="text/css">
	.st0{fill:#4A4F54;}
	.st1{fill:#D22630;}
</style>
<g>
	<g>
		<path class="st0" d="M86.8,169.1l13-1.9c3-0.4,4-1.9,4-3.8c0-3.8-2.9-6.9-8.9-6.9c-6.2,0-9.7,4-10.1,8.6l-12.7-2.7
			c0.9-8.3,8.5-17.4,22.7-17.4c16.8,0,23,9.5,23,20.1v26c0,2.8,0.3,6.6,0.6,8.4h-13.1c-0.3-1.4-0.5-4.3-0.5-6.3
			c-2.7,4.2-7.7,7.9-15.6,7.9c-11.3,0-18.2-7.6-18.2-15.9C71,175.7,78,170.4,86.8,169.1z M103.8,178.2v-2.4l-11.9,1.8
			c-3.7,0.5-6.6,2.6-6.6,6.7c0,3.1,2.3,6.1,6.9,6.1C98.2,190.4,103.8,187.5,103.8,178.2z M138.8,173l-18.8-26.4h17
			c1.8,2.9,8.7,12.8,10.5,15.7l10.4-15.7h16.2l-18.5,25.9l19.2,27H158L147,183.3c-1.9,2.9-9,13.3-10.9,16.2h-16.1L138.8,173z
			 M223.8,146.6l11.4,34.1l9.8-34.1h14.2l-16.6,52.9h-14.3l-12.4-36.1l-12.2,36.1h-14.5l-16.9-52.9h15.1l9.8,34l11.5-34H223.8z
			 M273.7,169.1l13-1.9c3-0.4,4-1.9,4-3.8c0-3.8-2.9-6.9-8.9-6.9c-6.2,0-9.7,4-10.1,8.6l-12.7-2.7c0.9-8.3,8.5-17.4,22.7-17.4
			c16.8,0,23,9.5,23,20.1v26c0,2.8,0.3,6.6,0.6,8.4h-13.1c-0.3-1.4-0.5-4.3-0.5-6.3c-2.7,4.2-7.7,7.9-15.6,7.9
			c-11.3,0-18.2-7.6-18.2-15.9C257.9,175.7,264.9,170.4,273.7,169.1z M290.7,178.2v-2.4l-11.9,1.8c-3.7,0.5-6.6,2.6-6.6,6.7
			c0,3.1,2.3,6.1,6.9,6.1C285.1,190.4,290.7,187.5,290.7,178.2z M313.6,220.5l12.5-27.5l-22.5-46.3h16l14.1,31l13-31H362l-33.2,73.8
			H313.6z"/>
		<path class="st1" d="M490.6,121l0,27L371.9,91.5v-18L475.8,123V96l27.2,13v18L490.6,121z M398.5,140.2v18l19,9l-30.6,32.4h20.3
			l36.3-38L398.5,140.2z M490.6,157l-104.5-49.7l0,18l83.2,39.6L490.6,157z"/>
	</g>
</g>
</svg>
