<svg width="279" height="97" viewBox="0 0 279 97" fill="none" xmlns="http://www.w3.org/2000/svg">
<path d="M24.1992 48.2992L48.3992 24.1992L72.4992 48.2992L48.3992 72.4992L24.1992 48.2992Z" fill="url(#paint0_linear_3328_48)"/>
<path d="M72.5004 96.6988L48.4004 72.4988L72.5004 48.2988L96.7004 72.4988L72.5004 96.6988Z" fill="url(#paint1_linear_3328_48)"/>
<path d="M24.2 48.2988L48.4 72.4988L24.2 96.6988L0 72.4988L24.2 48.2988Z" fill="url(#paint2_linear_3328_48)"/>
<path d="M24.1992 24.2L48.3992 0L72.4992 24.2L48.3992 48.3L24.1992 24.2Z" fill="url(#paint3_linear_3328_48)"/>
<path d="M72.5004 72.4992L48.4004 48.2992L72.5004 24.1992L96.7004 48.2992L72.5004 72.4992Z" fill="url(#paint4_linear_3328_48)"/>
<path d="M24.2 24.1992L48.4 48.2992L24.2 72.4992L0 48.2992L24.2 24.1992Z" fill="url(#paint5_linear_3328_48)"/>
<path d="M207.2 18.2012C220.7 18.2012 227.5 23.9012 227.5 35.2012C227.5 38.3012 226.8 40.9012 225.5 43.0012C224.1 45.0012 222.5 46.6012 220.6 47.5012V48.0012C226.3 50.4012 229.1 54.7012 229.1 60.9012C229.1 68.3012 226.9 73.6012 222.4 76.6012C218.5 79.2012 213.6 80.4012 207.9 80.4012C202.2 80.4012 194.7 79.9012 185.6 78.8012L186 51.3012L185.6 19.5012C194.2 18.6012 201.4 18.2012 207.2 18.2012ZM198.9 42.9012H207.5C209.9 42.9012 211.5 42.4012 212.4 41.3012C213.3 40.2012 213.8 38.4012 213.8 35.8012C213.8 33.2012 213.3 31.4012 212.2 30.3012C211.1 29.2012 209.4 28.7012 206.9 28.7012L198.9 29.0012V42.9012ZM199.1 69.1012C202.5 69.4012 205.6 69.6012 208.2 69.6012C210.9 69.6012 212.7 68.9012 213.7 67.6012C214.7 66.3012 215.1 64.1012 215.1 61.2012C215.1 58.3012 214.4 56.2012 213 55.0012C211.6 53.9012 209.5 53.3012 206.8 53.3012H199L199.1 69.1012Z" fill="white"/>
<path d="M172.7 53.2016C172.2 52.2016 171.5 51.2016 170.5 50.2016C169.6 49.3016 168.7 48.5016 168 47.9016C167.3 47.3016 166.2 46.6016 164.9 45.9016C163.6 45.2016 162.6 44.7016 161.9 44.3016C161.2 43.9016 160.1 43.4016 158.7 42.8016C157.3 42.2016 155.8 41.5016 154 40.7016C152.3 39.9016 150.7 38.9016 149.3 37.8016C147.9 36.8016 147.3 35.5016 147.3 33.9016C147.3 32.3016 147.7 31.2016 148.7 30.6016C149.7 29.9016 151 29.6016 152.8 29.6016C157.4 29.6016 163.1 30.3016 169.9 31.6016L170.3 31.7016L172.6 20.0016L172.2 19.9016C168.7 18.9016 165.5 18.2016 162.5 17.8016C159.5 17.3016 156.8 17.1016 154.3 17.1016C147.5 17.1016 142.1 18.7016 138.4 21.9016C134.7 25.1016 132.8 29.5016 132.8 34.8016C132.8 40.1016 134.8 44.4016 138.8 47.6016C140.4 48.9016 142.9 50.3016 146.3 52.0016C149.7 53.6016 152.1 54.7016 153.4 55.4016C154 55.7016 154.8 56.1016 155.6 56.5016C156.4 56.9016 157.1 57.3016 157.5 57.7016C157.9 58.1016 158.5 58.5016 159.2 59.2016C159.8 59.8016 160.1 60.6016 160.1 61.8016C160.1 64.3016 159.6 65.9016 158.5 66.6016C157.4 67.3016 156 67.7016 154.4 67.7016C148.6 67.7016 142.2 66.3016 135.3 63.5016L134.9 63.3016L134.8 63.7016C133.3 68.6016 132.4 71.5016 132.1 72.5016C131.8 73.2016 131.6 73.9016 131.5 74.3016L131.4 74.6016L134.5 76.0016C136.4 76.9016 139.1 77.8016 142.6 78.7016C146.1 79.6016 149.5 80.0016 152.8 80.0016C159.2 80.0016 164.5 78.2016 168.5 74.8016C172.5 71.3016 174.6 66.7016 174.6 61.1016C174.5 58.4016 173.9 55.7016 172.7 53.2016Z" fill="white"/>
<path d="M276.4 53.2016C275.9 52.2016 275.2 51.2016 274.2 50.2016C273.3 49.3016 272.4 48.5016 271.7 47.9016C271 47.3016 269.9 46.6016 268.6 45.9016C267.3 45.2016 266.3 44.7016 265.6 44.3016C264.9 43.9016 263.8 43.4016 262.4 42.8016C261 42.2016 259.5 41.5016 257.7 40.7016C256 39.9016 254.4 38.9016 253 37.8016C251.6 36.8016 251 35.5016 251 33.9016C251 32.3016 251.4 31.2016 252.4 30.6016C253.4 29.9016 254.7 29.6016 256.5 29.6016C261.1 29.6016 266.8 30.3016 273.6 31.6016L274 31.7016L276.3 20.0016L275.9 19.9016C272.4 18.9016 269.2 18.2016 266.2 17.8016C263.2 17.3016 260.5 17.1016 258 17.1016C251.2 17.1016 245.8 18.7016 242.1 21.9016C238.4 25.1016 236.5 29.5016 236.5 34.8016C236.5 40.1016 238.5 44.4016 242.5 47.6016C244.1 48.9016 246.6 50.3016 250 52.0016C253.4 53.6016 255.8 54.7016 257.1 55.4016C257.7 55.7016 258.5 56.1016 259.3 56.5016C260.1 56.9016 260.8 57.3016 261.2 57.7016C261.6 58.1016 262.2 58.5016 262.9 59.2016C263.5 59.8016 263.8 60.6016 263.8 61.8016C263.8 64.3016 263.3 65.9016 262.2 66.6016C261.1 67.3016 259.7 67.7016 258.1 67.7016C252.3 67.7016 245.9 66.3016 239 63.5016L238.6 63.3016L238.5 63.7016C237 68.6016 236.1 71.5016 235.8 72.5016C235.5 73.2016 235.3 73.9016 235.2 74.3016L235.1 74.6016L238.2 76.0016C240.1 76.9016 242.8 77.8016 246.3 78.7016C249.8 79.6016 253.2 80.0016 256.5 80.0016C262.9 80.0016 268.2 78.2016 272.2 74.8016C276.2 71.3016 278.3 66.7016 278.3 61.1016C278.2 58.4016 277.6 55.7016 276.4 53.2016Z" fill="white"/>
<defs>
<linearGradient id="paint0_linear_3328_48" x1="48.3516" y1="24.155" x2="48.3516" y2="72.5062" gradientUnits="userSpaceOnUse">
<stop stop-color="#59BFFF"/>
<stop offset="1" stop-color="#1039B4"/>
</linearGradient>
<linearGradient id="paint1_linear_3328_48" x1="48.3535" y1="72.5064" x2="96.7047" y2="72.5064" gradientUnits="userSpaceOnUse">
<stop stop-color="#73DDFF"/>
<stop offset="1" stop-color="#0180DD"/>
</linearGradient>
<linearGradient id="paint2_linear_3328_48" x1="48.3522" y1="72.506" x2="0.000997157" y2="72.506" gradientUnits="userSpaceOnUse">
<stop stop-color="#017EDD"/>
<stop offset="1" stop-color="#9DECFF"/>
</linearGradient>
<linearGradient id="paint3_linear_3328_48" x1="48.3507" y1="-0.0198" x2="48.3507" y2="48.3313" gradientUnits="userSpaceOnUse">
<stop offset="0.3" stop-color="#FFD315"/>
<stop offset="0.3822" stop-color="#FFCD1E"/>
<stop offset="0.5162" stop-color="#FFBD36"/>
<stop offset="0.6855" stop-color="#FFA35E"/>
<stop offset="0.8815" stop-color="#FF7F94"/>
<stop offset="1" stop-color="#FF67B9"/>
</linearGradient>
<linearGradient id="paint4_linear_3328_48" x1="48.3525" y1="48.3312" x2="96.7037" y2="48.3312" gradientUnits="userSpaceOnUse">
<stop stop-color="#FF00B1"/>
<stop offset="0.1409" stop-color="#F600B2"/>
<stop offset="0.3708" stop-color="#DE00B5"/>
<stop offset="0.6609" stop-color="#B600BA"/>
<stop offset="0.9971" stop-color="#7F00C1"/>
<stop offset="1" stop-color="#7F00C1"/>
</linearGradient>
<linearGradient id="paint5_linear_3328_48" x1="48.3512" y1="48.3308" x2="0" y2="48.3308" gradientUnits="userSpaceOnUse">
<stop stop-color="#FF00B1"/>
<stop offset="0.1409" stop-color="#F600B2"/>
<stop offset="0.3708" stop-color="#DE00B5"/>
<stop offset="0.6609" stop-color="#B600BA"/>
<stop offset="0.9971" stop-color="#7F00C1"/>
<stop offset="1" stop-color="#7F00C1"/>
</linearGradient>
</defs>
</svg>
