<?xml version="1.0" encoding="UTF-8" standalone="no"?>
<svg
   xmlns:dc="http://purl.org/dc/elements/1.1/"
   xmlns:cc="http://creativecommons.org/ns#"
   xmlns:rdf="http://www.w3.org/1999/02/22-rdf-syntax-ns#"
   xmlns:svg="http://www.w3.org/2000/svg"
   xmlns="http://www.w3.org/2000/svg"
   xmlns:sodipodi="http://sodipodi.sourceforge.net/DTD/sodipodi-0.dtd"
   xmlns:inkscape="http://www.inkscape.org/namespaces/inkscape"
   viewBox="0 0 93.091219 53.249026"
   version="1.1"
   id="svg14"
   sodipodi:docname="webhelp2020logo.svg"
   inkscape:version="0.92.4 (5da689c313, 2019-01-14)"
   width="93.091217"
   height="53.249027">
  <metadata
     id="metadata18">
    <rdf:RDF>
      <cc:Work
         rdf:about="">
        <dc:format>image/svg+xml</dc:format>
        <dc:type
           rdf:resource="http://purl.org/dc/dcmitype/StillImage" />
        <dc:title>Fichier 1</dc:title>
      </cc:Work>
    </rdf:RDF>
  </metadata>
  <sodipodi:namedview
     pagecolor="#ffffff"
     bordercolor="#666666"
     borderopacity="1"
     objecttolerance="10"
     gridtolerance="10"
     guidetolerance="10"
     inkscape:pageopacity="0"
     inkscape:pageshadow="2"
     inkscape:window-width="1920"
     inkscape:window-height="1001"
     id="namedview16"
     showgrid="false"
     inkscape:pagecheckerboard="true"
     inkscape:zoom="3.1356106"
     inkscape:cx="139.69642"
     inkscape:cy="24.562417"
     inkscape:window-x="-9"
     inkscape:window-y="-9"
     inkscape:window-maximized="1"
     inkscape:current-layer="svg14"
     fit-margin-top="0"
     fit-margin-left="0"
     fit-margin-right="0"
     fit-margin-bottom="0" />
  <defs
     id="defs4">
    <style
       id="style2">.cls-1{fill:#fff;}.cls-2{fill:#1d4851;}</style>
  </defs>
  <title
     id="title6">Fichier 1</title>
  <g
     id="Calque_2"
     data-name="Calque 2"
     transform="translate(0.04212674,-3.1204603e-4)">
    <g
       id="Layer_1"
       data-name="Layer 1">
      <g
         id="Homepage">
        <g
           id="Logotype_RGB"
           data-name="Logotype RGB">
          <path
             id="Path"
             class="cls-1"
             d="m 90.34,24 -16.1,22.8 v 0 a 5.55,5.55 0 0 1 -0.6,0.8 15.46,15.46 0 0 1 -10.5,5.6 15.16,15.16 0 0 1 -11.3,-3.8 c -1,-0.9 -1.8,-1.8 -2.8,-2.7 L 46.54,44.2 44,46.68 a 35.69,35.69 0 0 1 -2.8,2.7 15,15 0 0 1 -21.8,-1.8 c -0.2,-0.3 -0.4,-0.5 -0.6,-0.8 L 2.84,24 a 15.12,15.12 0 0 1 23,-19.5 l 5,5 3.6,-3.6 1.4,-1.4 a 15.13,15.13 0 0 1 20.6,-0.8 c 0.6,0.5 1.1,1.1 1.7,1.6 l 4.1,4.1 5,-5 A 15.22,15.22 0 0 1 90.34,24"
             style="fill:#1d4851;fill-opacity:1"
             inkscape:connector-curvature="0" />
          <path
             id="Shape"
             class="cls-2"
             d="m 28.84,20.68 -1,3.8 -1,3.8 -1.2,-3.7 -1.3,-3.9 h -1.4 l -1.3,3.9 -1.1,3.7 -0.9,-3.8 -1,-3.8 h -2.2 l 3.4,10.6 h 1.6 l 2.3,-7.4 2.4,7.4 h 1.6 L 31,20.68 Z m 9,7.1 a 3.36,3.36 0 0 0 -3.4,-3.6 3.52,3.52 0 0 0 -3.6,3.6 3.63,3.63 0 0 0 3.8,3.6 4.86,4.86 0 0 0 2.9,-0.9 l -0.8,-1.4 a 2.57,2.57 0 0 1 -1.8,0.7 2.12,2.12 0 0 1 -2.1,-1.4 h 5 z m -3.4,-2 a 1.43,1.43 0 0 1 1.5,1.3 h -3.2 a 1.62,1.62 0 0 1 1.7,-1.3 z m 8.9,-1.6 a 2.72,2.72 0 0 0 -2.1,0.9 v -4.6 h -2 v 10.7 h 1.6 l 0.1,-0.9 a 3.19,3.19 0 0 0 2.4,1.1 3.42,3.42 0 0 0 3.4,-3.6 3.42,3.42 0 0 0 -3.4,-3.6 z m -0.4,5.4 a 1.8,1.8 0 1 1 0,-3.6 1.71,1.71 0 0 1 1.7,1.8 1.65,1.65 0 0 1 -1.7,1.8 z m 9.2,-5.4 a 2.82,2.82 0 0 0 -2,0.7 v -4.4 h -2 v 10.7 h 2 v -3.6 a 1.6,1.6 0 0 1 1.6,-1.7 1.53,1.53 0 0 1 1.5,1.7 v 3.6 h 2 v -3.8 a 3,3 0 0 0 -3.1,-3.2 z m 11.6,3.6 a 3.36,3.36 0 0 0 -3.4,-3.6 3.52,3.52 0 0 0 -3.6,3.6 3.63,3.63 0 0 0 3.8,3.6 4.86,4.86 0 0 0 2.9,-0.9 l -0.8,-1.4 a 2.57,2.57 0 0 1 -1.8,0.7 2.12,2.12 0 0 1 -2.1,-1.4 h 5.1 c -0.2,0 -0.1,-0.3 -0.1,-0.6 z m -3.4,-2 a 1.43,1.43 0 0 1 1.5,1.3 h -3.2 a 1.55,1.55 0 0 1 1.7,-1.3 z m 4.8,5.5 h 2 v -10.7 h -2 z m 7.9,-7.1 a 2.9,2.9 0 0 0 -2.3,1 l -0.1,-0.8 h -1.7 v 9.9 h 2 v -3.7 a 2.72,2.72 0 0 0 2.1,0.9 3.35,3.35 0 0 0 3.3,-3.6 3.43,3.43 0 0 0 -3.3,-3.7 z m -0.4,5.4 a 1.73,1.73 0 0 1 -1.8,-1.8 1.68,1.68 0 0 1 1.8,-1.8 1.8,1.8 0 0 1 0,3.6 z"
             style="fill:#ffffff;fill-opacity:1"
             inkscape:connector-curvature="0" />
        </g>
      </g>
    </g>
  </g>
</svg>
